HIERARCHY
ROOT hip
{
	OFFSET 0.000000 0.000000 0.000000
	CHANNELS 6 Xposition Yposition Zposition Xrotation Zrotation Yrotation 
	JOINT abdomen
	{
		OFFSET 0.000000 3.422050 0.000000
		CHANNELS 3 Xrotation Zrotation Yrotation 
		JOINT chest
		{
			OFFSET 0.000000 8.486693 -0.6844110
			CHANNELS 3 Xrotation Zrotation Yrotation 
			JOINT neck
			{
				OFFSET 0.000000 10.26616 -0.2737640
				CHANNELS 3 Xrotation Zrotation Yrotation 
				JOINT head
				{
					OFFSET 0.000000 3.148285 0.000000
					CHANNELS 3 Xrotation Zrotation Yrotation 
					End Site
					{
						OFFSET 0.000000 3.148289 0.000000
					}
				}
			}
			JOINT lCollar
			{
				OFFSET 3.422053 6.707223 -0.8212930
				CHANNELS 3 Yrotation Zrotation Xrotation 
				JOINT lShldr
				{
					OFFSET 3.285171 0.000000 0.000000
					CHANNELS 3 Zrotation Yrotation Xrotation 
					JOINT lForeArm
					{
						OFFSET 10.12928 0.000000 0.000000
						CHANNELS 3 Yrotation Zrotation Xrotation 
						JOINT lHand
						{
							OFFSET 8.486692 0.000000 0.000000
							CHANNELS 3 Zrotation Yrotation Xrotation 
							End Site
							{
								OFFSET 4.106464 0.000000 0.000000
							}
						}
					}
				}
			}
			JOINT rCollar
			{
				OFFSET -3.558935 6.707223 -0.8212930
				CHANNELS 3 Yrotation Zrotation Xrotation 
				JOINT rShldr
				{
					OFFSET -3.148289 0.000000 0.000000
					CHANNELS 3 Zrotation Yrotation Xrotation 
					JOINT rForeArm
					{
						OFFSET -10.26616 0.000000 0.000000
						CHANNELS 3 Yrotation Zrotation Xrotation 
						JOINT rHand
						{
							OFFSET -8.349810 0.000000 0.000000
							CHANNELS 3 Zrotation Yrotation Xrotation 
							End Site
							{
								OFFSET -4.106464 0.000000 0.000000
							}
						}
					}
				}
			}
		}
	}
	JOINT lThigh
	{
		OFFSET 5.338403 -1.642589 1.368821
		CHANNELS 3 Xrotation Zrotation Yrotation 
		JOINT lShin
		{
			OFFSET -2.053232 -20.12167 0.000000
			CHANNELS 3 Xrotation Zrotation Yrotation 
			JOINT lFoot
			{
				OFFSET 0.000000 -19.30038 -1.231939
				CHANNELS 3 Xrotation Yrotation Zrotation 
				End Site
				{
					OFFSET 0.000000 -2.463878 4.653993
				}
			}
		}
	}
	JOINT rThigh
	{
		OFFSET -5.338403 -1.642589 1.368821
		CHANNELS 3 Xrotation Zrotation Yrotation 
		JOINT rShin
		{
			OFFSET 2.053232 -20.12167 0.000000
			CHANNELS 3 Xrotation Zrotation Yrotation 
			JOINT rFoot
			{
				OFFSET 0.000000 -19.30038 -1.231939
				CHANNELS 3 Xrotation Yrotation Zrotation 
				End Site
				{
					OFFSET 0.000000 -2.463878 4.653993
				}
			}
		}
	}
}
MOTION
Frames:	12
Frame Time:	0.1000000
-16.00000 45.00000 -17.00000 0.000000 26.00000 57.55000 -13.00000 0.000000 -1.000000 -4.000000 0.000000 0.000000 -32.55000 2.000000 0.000000 -9.900000 0.000000 -14.00000 5.000000 3.000000 10.00000 -86.00000 9.951072 -15.00000 -43.48571 -5.000000 20.00000 -8.000000 20.00000 30.00000 9.785714 9.814286 -10.00000 76.00000 -5.000000 29.32857 81.62857 5.000000 20.00000 52.70000 9.571429 -29.14286 -35.40000 1.711890 8.542039 16.65000 -4.447798 0.3524090 43.95000 3.363076 -1.796880 21.00000 -8.164010 -7.760338 -2.764018 1.789389 6.203196 22.03812 -3.444693 -9.683217 
-16.00000 45.00000 -17.00000 0.000000 26.00000 57.55000 -13.00000 0.000000 -1.000000 -4.000000 0.000000 0.000000 -33.60000 2.000000 0.000000 -10.80000 0.000000 -14.00000 5.000000 3.000000 10.00000 -86.00000 10.73429 -15.00000 -43.48571 -5.000000 20.00000 -8.000000 20.00000 30.00000 9.785714 9.814286 -10.00000 76.00000 -5.000000 29.32857 81.62857 5.000000 20.00000 52.70000 9.571429 -29.14286 -37.80000 1.711890 8.542039 16.80000 -4.447798 0.3524090 44.40000 3.363076 -1.796880 21.00000 -8.164010 -7.760338 -2.764018 1.789389 6.203196 22.03812 -3.444693 -9.683217 
-16.00000 45.00000 -17.00000 0.000000 26.00000 57.55000 -13.00000 0.000000 -1.000000 -4.000000 0.000000 0.000000 -34.65000 2.000000 0.000000 -11.70000 0.000000 -14.00000 5.000000 3.000000 10.00000 -86.00000 11.51750 -15.00000 -43.48571 -5.000000 20.00000 -8.000000 20.00000 30.00000 9.785714 9.814286 -10.00000 76.00000 -5.000000 29.32857 81.62857 5.000000 20.00000 52.70000 9.571429 -29.14286 -40.20000 1.711890 8.542039 16.95000 -4.447798 0.3524090 44.85000 3.363076 -1.796880 21.00000 -8.164010 -7.760338 -2.764018 1.789389 6.203196 22.03812 -3.444693 -9.683217 
-16.00000 45.00000 -17.00000 0.000000 26.00000 57.55000 -13.00000 0.000000 -1.000000 -4.000000 0.000000 0.000000 -35.70000 2.000000 0.000000 -12.60000 0.000000 -14.00000 5.000000 3.000000 10.00000 -86.00000 12.30071 -15.00000 -43.48571 -5.000000 20.00000 -8.000000 20.00000 30.00000 9.785714 9.814286 -10.00000 76.00000 -5.000000 29.32857 81.62857 5.000000 20.00000 52.70000 9.571429 -29.14286 -42.60000 1.711890 8.542039 17.10000 -4.447798 0.3524090 45.30000 3.363076 -1.796880 21.00000 -8.164010 -7.760338 -2.764018 1.789389 6.203196 22.03812 -3.444693 -9.683217 
-16.00000 45.00000 -17.00000 0.000000 26.00000 57.55000 -13.00000 0.000000 -1.000000 -4.000000 0.000000 0.000000 -36.75000 2.000000 0.000000 -13.50000 0.000000 -14.00000 5.000000 3.000000 10.00000 -86.00000 13.08393 -15.00000 -43.48571 -5.000000 20.00000 -8.000000 20.00000 30.00000 9.785714 9.814286 -10.00000 76.00000 -5.000000 29.32857 81.62857 5.000000 20.00000 52.70000 9.571429 -29.14286 -45.00000 1.711890 8.542039 17.25000 -4.447798 0.3524090 45.75000 3.363076 -1.796880 21.00000 -8.164010 -7.760338 -2.764018 1.789389 6.203196 22.03812 -3.444693 -9.683217 
-16.00000 45.00000 -17.00000 0.000000 26.00000 57.55000 -13.00000 0.000000 -1.000000 -4.000000 0.000000 0.000000 -37.80000 2.000000 0.000000 -14.40000 0.000000 -14.00000 5.000000 3.000000 10.00000 -86.00000 13.86714 -15.00000 -43.48571 -5.000000 20.00000 -8.000000 20.00000 30.00000 9.785714 9.814286 -10.00000 76.00000 -5.000000 29.32857 81.62857 5.000000 20.00000 52.70000 9.571429 -29.14286 -47.40000 1.711890 8.542039 17.40000 -4.447798 0.3524090 46.20000 3.363076 -1.796880 21.00000 -8.164010 -7.760338 -2.764018 1.789389 6.203196 22.03812 -3.444693 -9.683217 
-16.00000 45.00000 -17.00000 0.000000 26.00000 57.55000 -13.00000 0.000000 -1.000000 -4.000000 0.000000 0.000000 -38.85000 2.000000 0.000000 -15.30000 0.000000 -14.00000 5.000000 3.000000 10.00000 -86.00000 14.65036 -15.00000 -43.48571 -5.000000 20.00000 -8.000000 20.00000 30.00000 9.785714 9.814286 -10.00000 76.00000 -5.000000 29.32857 81.62857 5.000000 20.00000 52.70000 9.571429 -29.14286 -49.80000 1.711890 8.542039 17.55000 -4.447798 0.3524090 46.65000 3.363076 -1.796880 21.00000 -8.164010 -7.760338 -2.764018 1.789389 6.203196 22.03812 -3.444693 -9.683217 
-16.00000 45.00000 -17.00000 0.000000 26.00000 57.55000 -13.00000 0.000000 -1.000000 -4.000000 0.000000 0.000000 -39.90000 2.000000 0.000000 -16.20000 0.000000 -14.00000 5.000000 3.000000 10.00000 -86.00000 15.43357 -15.00000 -43.48571 -5.000000 20.00000 -8.000000 20.00000 30.00000 9.785714 9.814286 -10.00000 76.00000 -5.000000 29.32857 81.62857 5.000000 20.00000 52.70000 9.571429 -29.14286 -52.20000 1.711890 8.542039 17.70000 -4.447798 0.3524090 47.10000 3.363076 -1.796880 21.00000 -8.164010 -7.760338 -2.764018 1.789389 6.203196 22.03812 -3.444693 -9.683217 
-16.00000 45.00000 -17.00000 0.000000 26.00000 57.55000 -13.00000 0.000000 -1.000000 -4.000000 0.000000 0.000000 -40.95000 2.000000 0.000000 -17.10000 0.000000 -14.00000 5.000000 3.000000 10.00000 -86.00000 16.21679 -15.00000 -43.48571 -5.000000 20.00000 -8.000000 20.00000 30.00000 9.785714 9.814286 -10.00000 76.00000 -5.000000 29.32857 81.62857 5.000000 20.00000 52.70000 9.571429 -29.14286 -54.60000 1.711890 8.542039 17.85000 -4.447798 0.3524090 47.55000 3.363076 -1.796880 21.00000 -8.164010 -7.760338 -2.764018 1.789389 6.203196 22.03812 -3.444693 -9.683217 
-16.00000 45.00000 -17.00000 0.000000 26.00000 57.55000 -13.00000 0.000000 -1.000000 -4.000000 0.000000 0.000000 -42.00000 2.000000 0.000000 -18.00000 0.000000 -14.00000 5.000000 3.000000 10.00000 -86.00000 17.00000 -15.00000 -43.48571 -5.000000 20.00000 -8.000000 20.00000 30.00000 9.785714 9.814286 -10.00000 76.00000 -5.000000 29.32857 81.62857 5.000000 20.00000 52.70000 9.571429 -29.14286 -57.00000 1.711890 8.542039 18.00000 -4.447798 0.3524090 48.00000 3.363076 -1.796880 21.00000 -8.164010 -7.760338 -2.764018 1.789389 6.203196 22.03812 -3.444693 -9.683217 
-16.00000 45.00000 -17.00000 0.000000 26.00000 57.55000 -13.00000 0.000000 -1.000000 -4.000000 0.000000 0.000000 -40.95000 2.000000 0.000000 -17.10000 0.000000 -14.00000 5.000000 3.000000 10.00000 -86.00000 16.21679 -15.00000 -43.48571 -5.000000 20.00000 -8.000000 20.00000 30.00000 9.785714 9.814286 -10.00000 76.00000 -5.000000 29.32857 81.62857 5.000000 20.00000 52.70000 9.571429 -29.14286 -54.60000 1.711890 8.542039 17.85000 -4.447798 0.3524090 47.55000 3.363076 -1.796880 21.00000 -8.164010 -7.760338 -2.764018 1.789389 6.203196 22.03812 -3.444693 -9.683217 
-16.00000 45.00000 -17.00000 0.000000 26.00000 57.55000 -13.00000 0.000000 -1.000000 -4.000000 0.000000 0.000000 -39.90000 2.000000 0.000000 -16.20000 0.000000 -14.00000 5.000000 3.000000 10.00000 -86.00000 15.43357 -15.00000 -43.48571 -5.000000 20.00000 -8.000000 20.00000 30.00000 9.785714 9.814286 -10.00000 76.00000 -5.000000 29.32857 81.62857 5.000000 20.00000 52.70000 9.571429 -29.14286 -52.20000 1.711890 8.542039 17.70000 -4.447798 0.3524090 47.10000 3.363076 -1.796880 21.00000 -8.164010 -7.760338 -2.764018 1.789389 6.203196 22.03812 -3.444693 -9.683217 
